<?xml version="1.0" standalone="no"?>
<!DOCTYPE svg PUBLIC "-//W3C//DTD SVG 20010904//EN"
 "http://www.w3.org/TR/2001/REC-SVG-20010904/DTD/svg10.dtd">
<svg version="1.0" xmlns="http://www.w3.org/2000/svg"
 width="1334.000000pt" height="514.000000pt" viewBox="0 0 1334.000000 514.000000"
 preserveAspectRatio="xMidYMid meet">

<g transform="translate(0.000000,514.000000) scale(0.100000,-0.100000)"
fill="#000000" stroke="none">
<path d="M679 4257 c-100 -29 -127 -53 -435 -382 -72 -77 -156 -167 -187 -200
l-57 -60 3 -1695 2 -1695 27 -50 c33 -62 80 -108 138 -134 45 -20 57 -21 1661
-21 l1615 0 52 26 c59 29 106 79 136 143 21 45 21 59 24 723 l3 677 289 308
c212 225 293 317 300 343 6 22 10 406 10 1028 l0 992 -793 0 c-437 0 -1232 2
-1768 5 -788 4 -983 3 -1020 -8z m2981 -1642 l0 -1005 -967 2 -968 3 -3 1003
-2 1002 970 0 970 0 0 -1005z"/>
<path d="M10330 1360 l0 -600 110 0 110 0 0 304 0 304 35 30 c55 49 152 56
198 15 43 -39 47 -67 47 -368 l0 -285 110 0 110 0 0 318 c0 374 -4 397 -78
471 -58 58 -112 76 -215 69 -78 -5 -117 -21 -172 -69 l-35 -31 0 221 0 221
-110 0 -110 0 0 -600z"/>
<path d="M12140 1360 l0 -600 110 0 110 0 0 600 0 600 -110 0 -110 0 0 -600z"/>
<path d="M4802 1406 l3 -494 30 -43 c35 -50 103 -94 159 -104 l39 -6 -6 313
c-4 172 -9 360 -12 418 l-6 105 152 -418 152 -418 81 3 81 3 147 403 c80 222
149 407 153 410 4 4 5 -27 1 -68 -3 -41 -9 -227 -13 -413 l-6 -339 39 8 c78
14 138 59 170 128 l24 51 0 478 0 477 -153 0 -152 0 -114 -322 c-165 -469
-173 -490 -179 -483 -3 3 -69 184 -146 403 l-141 397 -153 3 -153 3 3 -495z"/>
<path d="M8080 1710 l0 -100 -60 0 -60 0 0 -85 0 -85 59 0 60 0 3 -268 c3
-264 3 -268 28 -317 21 -39 37 -55 80 -78 52 -27 61 -29 150 -25 52 2 101 7
108 11 8 6 12 35 12 90 l0 82 -54 0 c-39 0 -60 5 -75 19 -20 18 -21 28 -21
253 l0 233 70 0 70 0 0 85 0 85 -70 0 -70 0 0 100 0 100 -115 0 -115 0 0 -100z"/>
<path d="M6425 1600 c-168 -56 -255 -197 -255 -414 0 -207 68 -332 220 -405
50 -24 66 -26 175 -26 116 0 123 1 187 33 157 77 227 235 206 467 -13 155 -88
270 -214 330 -81 39 -228 46 -319 15z m208 -176 c75 -38 101 -98 101 -239 1
-99 -2 -116 -24 -159 -36 -71 -68 -91 -143 -91 -76 0 -115 24 -147 90 -45 92
-34 279 20 355 40 56 129 76 193 44z"/>
<path d="M7464 1604 c-23 -8 -59 -30 -82 -49 -39 -34 -40 -34 -46 -12 -3 12
-6 32 -6 45 0 21 -3 22 -105 22 l-105 0 0 -425 0 -425 110 0 110 0 0 299 0
298 25 27 c49 52 124 69 190 42 62 -26 65 -41 65 -371 l0 -296 113 3 112 3 0
320 c0 288 -2 325 -19 374 -23 67 -85 132 -142 149 -55 16 -169 14 -220 -4z"/>
<path d="M8865 1614 c-138 -35 -242 -138 -280 -277 -13 -49 -16 -92 -13 -183
3 -103 7 -127 30 -176 15 -32 47 -79 72 -106 86 -92 188 -128 344 -120 79 4
99 9 165 41 65 32 127 84 127 105 0 4 -24 34 -54 67 l-54 60 -34 -32 c-58 -56
-160 -78 -239 -52 -43 15 -97 65 -115 106 -29 66 -41 63 251 63 l265 0 0 85
c0 154 -37 262 -116 335 -70 64 -122 83 -234 86 -52 2 -104 1 -115 -2z m164
-192 c45 -23 71 -59 78 -110 l6 -42 -157 0 c-173 0 -170 -2 -141 67 20 48 42
72 80 89 42 18 94 17 134 -4z"/>
<path d="M9693 1602 c-140 -50 -220 -158 -244 -330 -32 -222 51 -416 210 -491
50 -23 68 -26 171 -26 105 0 120 2 171 27 100 49 163 129 176 223 l6 45 -106
0 -105 0 -7 -29 c-17 -80 -140 -119 -216 -68 -60 40 -74 83 -74 232 0 144 13
189 67 228 40 29 115 33 156 8 37 -24 72 -76 72 -108 0 -22 3 -23 106 -23
l107 0 -6 55 c-11 107 -76 196 -177 244 -74 34 -228 41 -307 13z"/>
<path d="M11483 1606 c-146 -48 -240 -170 -265 -344 -31 -219 48 -390 220
-474 65 -32 70 -33 192 -33 119 0 128 1 191 31 59 28 140 93 139 112 -1 4 -25
34 -54 66 l-53 60 -42 -36 c-51 -43 -113 -62 -185 -56 -89 7 -151 61 -180 156
l-7 22 270 0 271 0 0 78 c-1 199 -67 333 -197 397 -50 24 -72 29 -158 32 -67
2 -114 -2 -142 -11z m197 -184 c39 -19 65 -59 75 -114 l7 -38 -156 0 c-173 0
-170 -2 -141 67 20 48 42 72 80 89 42 18 94 17 135 -4z"/>
<path d="M12809 1606 c-145 -39 -244 -163 -269 -336 -35 -246 73 -450 268
-506 78 -23 230 -16 295 14 106 47 172 126 209 245 17 58 20 86 15 185 -3 73
-11 134 -21 162 -41 113 -136 203 -245 234 -64 19 -187 20 -252 2z m202 -189
c18 -12 43 -37 56 -55 52 -78 55 -243 5 -341 -35 -70 -75 -94 -150 -88 -66 5
-100 28 -131 91 -45 90 -39 272 12 348 45 67 144 89 208 45z"/>
<path d="M5717 438 c-3 -18 -7 -42 -9 -52 -5 -31 20 -29 36 3 23 43 21 81 -3
81 -13 0 -20 -9 -24 -32z"/>
<path d="M8380 290 c0 -173 1 -180 20 -180 19 0 20 7 20 93 0 106 11 127 68
127 43 0 52 -22 52 -129 0 -84 1 -91 20 -91 19 0 20 7 20 98 0 57 -5 107 -13
122 -18 35 -69 48 -113 27 l-34 -17 0 65 c0 58 -2 65 -20 65 -19 0 -20 -7 -20
-180z"/>
<path d="M9450 290 c0 -173 1 -180 20 -180 19 0 20 7 20 180 0 173 -1 180 -20
180 -19 0 -20 -7 -20 -180z"/>
<path d="M12510 290 c0 -173 1 -180 20 -180 19 0 20 7 20 90 0 101 15 130 68
130 46 0 52 -15 52 -122 0 -91 1 -98 20 -98 19 0 20 7 20 109 0 106 -1 110
-26 130 -32 25 -59 26 -98 6 -15 -8 -30 -15 -32 -15 -2 0 -4 29 -4 65 0 58 -2
65 -20 65 -19 0 -20 -7 -20 -180z"/>
<path d="M4800 280 l0 -170 105 0 c87 0 105 3 105 15 0 12 -16 15 -85 15 l-85
0 0 155 c0 148 -1 155 -20 155 -19 0 -20 -7 -20 -170z"/>
<path d="M6410 279 l0 -171 94 4 c106 3 131 17 142 73 6 34 -15 90 -38 97 -8
3 -5 13 10 33 25 31 27 53 11 88 -16 36 -50 47 -139 47 l-80 0 0 -171z m162
129 c52 -41 19 -98 -60 -106 l-52 -5 0 62 0 61 48 0 c27 0 55 -6 64 -12z m12
-154 c27 -26 24 -71 -6 -96 -13 -12 -37 -18 -69 -18 l-49 0 0 65 0 65 54 0
c36 0 60 -5 70 -16z"/>
<path d="M7310 436 c0 -11 15 -16 53 -18 l52 -3 3 -152 c2 -145 4 -153 22
-153 19 0 20 7 20 155 l0 155 55 0 c42 0 55 3 55 15 0 13 -21 15 -130 15 -107
0 -130 -3 -130 -14z"/>
<path d="M10840 435 c0 -10 15 -15 58 -17 l57 -3 3 -152 c2 -145 4 -153 22
-153 19 0 20 7 20 155 l0 155 55 0 c42 0 55 3 55 15 0 13 -22 15 -135 15 -111
0 -135 -3 -135 -15z"/>
<path d="M5490 395 c0 -28 -4 -35 -20 -35 -11 0 -20 -7 -20 -15 0 -8 9 -15 19
-15 17 0 19 -10 23 -101 3 -87 6 -103 23 -115 25 -19 59 -14 63 9 2 11 -3 17
-16 17 -27 0 -32 18 -32 111 0 78 0 79 25 79 32 0 34 27 3 32 -18 2 -24 11
-26 36 -2 24 -8 32 -23 32 -15 0 -19 -7 -19 -35z"/>
<path d="M12288 398 c-2 -25 -8 -34 -25 -36 -32 -5 -30 -32 2 -32 25 0 25 0
25 -100 0 -95 1 -100 25 -116 27 -17 65 -11 65 11 0 7 -10 15 -22 17 -22 3
-23 8 -26 96 l-3 92 26 0 c16 0 25 6 25 15 0 9 -9 15 -25 15 -22 0 -25 4 -25
35 0 28 -4 35 -19 35 -15 0 -21 -8 -23 -32z"/>
<path d="M5188 355 c-15 -9 -35 -29 -43 -45 -20 -39 -20 -129 1 -159 36 -51
131 -63 169 -21 24 26 10 45 -18 25 -50 -35 -127 -4 -127 52 0 22 3 23 86 23
l87 0 -6 42 c-10 75 -87 118 -149 83z m87 -40 c43 -42 34 -55 -40 -55 -39 0
-65 4 -65 11 0 21 22 50 43 59 32 13 36 12 62 -15z"/>
<path d="M5908 355 c-32 -18 -45 -57 -30 -90 8 -18 28 -29 74 -43 65 -19 82
-38 58 -67 -18 -22 -77 -19 -97 5 -17 19 -53 28 -53 12 0 -21 35 -53 69 -63
70 -21 131 13 131 74 0 32 -25 52 -84 68 -63 18 -80 43 -47 70 27 22 58 18 80
-12 15 -22 51 -26 51 -6 0 24 -47 59 -87 63 -23 3 -49 -2 -65 -11z"/>
<path d="M6851 358 c-46 -25 -66 -64 -66 -129 1 -53 4 -63 32 -91 28 -27 39
-32 83 -32 38 0 56 5 72 21 28 28 15 50 -18 29 -24 -17 -61 -20 -89 -10 -19 8
-48 61 -40 74 3 6 44 10 91 10 78 0 84 1 84 20 0 28 -24 82 -43 98 -23 19 -79
24 -106 10z m85 -42 c7 -6 15 -21 19 -33 6 -22 4 -23 -63 -23 -65 0 -70 1 -65
20 13 49 76 70 109 36z"/>
<path d="M7753 354 c-60 -30 -83 -136 -43 -201 34 -56 140 -66 181 -17 18 22
-9 39 -32 18 -27 -24 -84 -18 -108 12 -12 15 -21 35 -21 45 0 17 9 19 85 19
l85 0 0 39 c0 77 -76 121 -147 85z m95 -42 c6 -9 12 -24 12 -34 0 -16 -9 -18
-65 -18 -36 0 -65 2 -65 5 0 2 5 15 11 29 21 45 78 55 107 18z"/>
<path d="M8084 351 c-51 -32 -69 -116 -39 -187 17 -41 71 -69 116 -59 38 9 79
42 79 66 0 27 -25 24 -44 -6 -12 -18 -25 -25 -49 -25 -38 0 -50 7 -66 37 -26
50 -7 132 35 152 31 14 74 -2 81 -29 7 -25 43 -27 43 -2 0 54 -100 89 -156 53z"/>
<path d="M8800 353 c-17 -12 -25 -13 -28 -5 -2 7 -12 12 -23 12 -18 0 -19 -8
-19 -125 0 -118 1 -125 20 -125 19 0 20 7 20 93 0 106 11 127 68 127 43 0 52
-22 52 -129 0 -84 1 -91 20 -91 19 0 20 7 20 105 0 99 -2 107 -25 130 -28 29
-70 32 -105 8z"/>
<path d="M9133 354 c-43 -22 -67 -74 -61 -136 9 -89 87 -138 163 -102 44 21
65 59 65 119 0 60 -23 103 -65 121 -43 18 -62 17 -102 -2z m107 -52 c47 -59
12 -162 -54 -162 -43 0 -67 28 -73 82 -9 97 73 149 127 80z"/>
<path d="M9705 360 c-11 -4 -31 -20 -45 -35 -21 -23 -25 -36 -25 -90 0 -56 3
-67 28 -93 36 -37 84 -48 131 -28 43 18 66 60 66 121 0 60 -23 103 -65 121
-38 16 -60 17 -90 4z m68 -31 c78 -35 55 -189 -27 -189 -43 0 -67 28 -73 82
-5 50 12 87 47 105 30 15 24 15 53 2z"/>
<path d="M10053 360 c-75 -31 -82 -196 -10 -241 31 -19 47 -19 105 -3 29 8 29
-14 1 -50 -24 -30 -66 -35 -103 -10 -19 11 -26 12 -32 3 -13 -21 34 -49 83
-49 95 0 113 35 113 220 0 123 -1 130 -20 130 -11 0 -20 -5 -20 -10 0 -6 -13
-4 -30 5 -32 17 -54 18 -87 5z m99 -47 c13 -12 18 -31 18 -72 0 -72 -19 -101
-64 -101 -49 0 -71 30 -71 95 0 38 5 59 19 74 23 25 72 28 98 4z"/>
<path d="M11274 360 c-30 -12 -62 -56 -70 -94 -8 -44 11 -107 38 -133 50 -47
146 -32 175 27 18 36 16 131 -3 158 -30 44 -91 62 -140 42z m75 -35 c34 -17
41 -32 41 -94 0 -60 -26 -91 -75 -91 -97 0 -95 179 3 199 2 1 16 -6 31 -14z"/>
<path d="M11621 356 c-36 -20 -50 -54 -51 -119 0 -104 56 -156 134 -123 36 15
36 15 36 -10 0 -54 -69 -82 -119 -48 -17 13 -25 14 -34 4 -9 -9 -6 -16 12 -31
35 -29 112 -26 148 5 l28 24 3 151 c3 147 3 151 -17 151 -12 0 -21 -4 -21 -9
0 -6 -12 -3 -27 5 -34 17 -61 17 -92 0z m101 -43 c24 -22 26 -128 1 -155 -25
-28 -79 -24 -99 8 -22 32 -21 107 0 139 20 30 70 34 98 8z"/>
<path d="M11995 360 c-109 -45 -95 -233 20 -254 55 -11 139 33 104 55 -8 5
-20 2 -30 -7 -27 -24 -84 -18 -108 12 -12 15 -21 35 -21 45 0 17 9 19 89 19
l90 0 -6 38 c-12 81 -70 120 -138 92z m58 -29 c14 -6 29 -23 35 -40 l11 -31
-70 0 c-38 0 -69 2 -69 5 0 26 32 62 67 74 1 1 13 -3 26 -8z"/>
<path d="M12924 361 c-79 -34 -95 -169 -29 -231 34 -32 116 -34 147 -3 27 27
15 49 -15 28 -22 -16 -63 -20 -92 -9 -19 8 -48 61 -40 74 3 6 45 10 92 10 l86
0 -7 43 c-4 23 -17 52 -29 65 -26 25 -81 36 -113 23z m91 -54 c28 -40 20 -47
-50 -47 -67 0 -74 5 -54 41 21 41 78 44 104 6z"/>
<path d="M13271 353 c-18 -12 -26 -13 -29 -5 -2 7 -10 12 -18 12 -11 0 -14
-24 -14 -125 0 -104 2 -125 15 -125 12 0 15 17 15 90 0 100 15 130 66 130 19
0 25 5 22 17 -4 24 -28 27 -57 6z"/>
<path d="M10354 298 c69 -186 69 -186 56 -218 -7 -18 -22 -33 -37 -36 -33 -9
-27 -40 7 -36 14 1 31 9 39 16 12 13 121 305 121 326 0 6 -9 10 -20 10 -15 0
-24 -17 -46 -90 -15 -50 -31 -87 -34 -83 -4 4 -20 45 -35 91 -23 72 -30 82
-50 82 l-24 0 23 -62z"/>
</g>
</svg>
